#!OML:ASF X:\für Bonn\!DataBase\2005_08_12_Daniel\c3d\Daniel.ASF
:FULLY-SPECIFIED
:DEGREES
1
root -5.02351 15.5181 -1.718 508.681 99.355 -2003.28
lowerback 30.5318 -0.490975 1.26796
upperback 5.61302 0.143699 -0.985048
thorax -10.4534 0.217514 -1.95181
lowerneck -8.11525 1.53367 -4.05719
upperneck -5.84389 2.51801 -0.35252
head -0.510758 1.41141 0.601981
rclavicle 1.05356e-014 -7.15625e-015
rhumerus -38.9717 0.796404 -93.3023
rradius 43.752
rwrist 5.37742
rhand -40.4196 32.4416
rfingers 7.12502
rthumb -13.3722 2.89069
lclavicle 1.05356e-014 -7.15625e-015
lhumerus -44.5728 7.80474 84.6641
lradius 49.5305
lwrist 4.87906
lhand -14.3783 -12.5466
lfingers 7.12502
lthumb 11.7643 17.103
rfemur -29.679 4.97889 25.1011
rtibia 70.2869
rfoot -24.2881 10.2865
rtoes -8.78693
lfemur -28.1201 -9.98215 -13.9836
ltibia 75.6536
lfoot -35.3663 4.38785
ltoes -18.9966
2
root -4.84257 15.4017 -1.73674 508.109 99.2772 -2004.05
lowerback 30.5594 -0.591396 1.51448
upperback 5.4171 0.0809119 -0.96227
thorax -10.696 0.169955 -2.04689
lowerneck -8.05068 1.46911 -4.20992
upperneck -6.1501 2.44665 -0.265763
head -0.617398 1.38716 0.650504
rclavicle 1.25234e-014 -1.90833e-014
rhumerus -35.7603 2.62604 -94.7959
rradius 44.6799
rwrist 6.52632
rhand -40.6162 32.6548
rfingers 7.12502
rthumb -13.5617 3.11648
lclavicle 1.25234e-014 -1.90833e-014
lhumerus -40.8986 6.4488 85.8917
lradius 49.6624
lwrist 4.33134
lhand -13.946 -12.8981
lfingers 7.12502
lthumb 12.1812 16.7273
rfemur -29.9246 5.06456 25.124
rtibia 71.881
rfoot -26.1082 10.1491
rtoes -9.23697
lfemur -28.2588 -9.60651 -14.1117
ltibia 76.9629
lfoot -36.8318 4.32349
ltoes -18.9968
3
root -4.66665 15.3127 -1.75341 507.601 99.1253 -2004.8
lowerback 30.6041 -0.686701 1.68191
upperback 5.18597 0.00232422 -0.90887
thorax -10.9896 0.115892 -2.0549
lowerneck -7.98215 1.40988 -4.40118
upperneck -6.45282 2.38526 -0.175936
head -0.724634 1.36885 0.707114
rclavicle -7.95139e-016 7.95139e-015
rhumerus -32.5862 4.88163 -96.152
rradius 45.9796
rwrist 7.33551
rhand -40.6097 32.369
rfingers 7.12502
rthumb -13.5554 2.83029
lclavicle -7.95139e-016 7.95139e-015
lhumerus -37.3391 4.98558 87.0644
lradius 50.1407
lwrist 3.75031
lhand -13.3901 -13.1454
lfingers 7.12502
lthumb 12.7171 16.4473
rfemur -30.0365 5.13753 25.0936
rtibia 73.113
rfoot -27.6641 9.9604
rtoes -9.69704
lfemur -28.4242 -9.25602 -14.2636
ltibia 78.0799
lfoot -37.9482 4.20932
ltoes -18.6534
4
root -4.49415 15.2436 -1.76871 507.029 98.9467 -2005.67
lowerback 30.6524 -0.78191 1.81207
upperback 4.90358 -0.0883452 -0.836882
thorax -11.3462 0.0549243 -2.01473
lowerneck -8.01616 1.36389 -4.52453
upperneck -6.67917 2.34118 -0.1273
head -0.790817 1.35646 0.741474
rclavicle 1.27222e-014 -1.59028e-015
rhumerus -29.6076 7.43849 -97.3098
rradius 47.6681
rwrist 7.89127
rhand -40.3929 31.8618
rfingers 7.12502
rthumb -13.3465 2.30924
lclavicle 1.27222e-014 -1.59028e-015
lhumerus -33.9754 3.51005 88.0804
lradius 50.9277
lwrist 3.1998
lhand -12.9136 -13.401
lfingers 7.12502
lthumb 13.1765 16.1627
rfemur -30.0499 5.18262 25.0581
rtibia 73.9851
rfoot -28.9167 9.74472
rtoes -10.1944
lfemur -28.6566 -8.85559 -14.3854
ltibia 79.0754
lfoot -38.7887 4.06128
ltoes -18.4336
5
root -4.31851 15.2003 -1.78246 506.67 98.7447 -2006.34
lowerback 30.8775 -0.852153 1.86214
upperback 4.16662 -0.168163 -0.819135
thorax -11.496 0.0149652 -1.85358
lowerneck -8.36158 1.3121 -4.57039
upperneck -6.62078 2.29945 -0.135121
head -0.716469 1.33752 0.749669
rclavicle -1.19271e-015 1.82882e-014
rhumerus -26.8829 10.1545 -98.199
rradius 49.6588
rwrist 8.06374
rhand -39.9697 31.467
rfingers 7.12502
rthumb -12.9386 1.8881
lclavicle -1.19271e-015 1.82882e-014
lhumerus -30.917 1.90827 88.9956
lradius 52.1248
lwrist 3.03191
lhand -12.5818 -13.4892
lfingers 7.12502
lthumb 13.4963 16.0535
rfemur -29.8303 5.26565 24.9792
rtibia 74.4565
rfoot -29.9372 9.55704
rtoes -10.696
lfemur -28.781 -8.49738 -14.5351
ltibia 79.849
lfoot -39.3049 3.83869
ltoes -18.248
6
root -4.13575 15.1926 -1.79443 506.152 98.5357 -2007.25
lowerback 30.8621 -0.916523 1.91947
upperback 3.79944 -0.245339 -0.723402
thorax -11.9046 -0.0404123 -1.75401
lowerneck -8.82769 1.27086 -4.4901
upperneck -6.4598 2.26641 -0.223891
head -0.588721 1.31788 0.71327
rclavicle 3.77691e-015 -4.77083e-015
rhumerus -24.4562 12.9253 -98.8486
rradius 51.5304
rwrist 8.05948
rhand -39.5748 31.6213
rfingers 7.12502
rthumb -12.5579 2.01874
lclavicle 3.77691e-015 -4.77083e-015
lhumerus -28.0495 0.227212 89.7882
lradius 53.5919
lwrist 3.27891
lhand -12.5159 -13.4608
lfingers 7.12502
lthumb 13.5598 16.0777
rfemur -29.3852 5.33892 24.9224
rtibia 74.4874
rfoot -30.6301 9.35698
rtoes -10.9672
lfemur -28.7913 -8.18556 -14.6372
ltibia 80.3213
lfoot -39.5219 3.54524
ltoes -18.1277
7
root -3.94244 15.2192 -1.80499 505.818 98.3066 -2007.97
lowerback 30.5863 -0.973808 1.94473
upperback 3.50132 -0.330351 -0.642423
thorax -12.1252 -0.0950307 -1.64917
lowerneck -8.98301 1.21345 -4.55833
upperneck -6.67621 2.21255 -0.171263
head -0.631212 1.30028 0.740339
rclavicle -2.64384e-014 -1.74931e-014
rhumerus -22.085 15.6377 -99.2243
rradius 53.0496
rwrist 8.05844
rhand -39.3458 32.405
rfingers 7.12502
rthumb -12.3371 2.78895
lclavicle -2.64384e-014 -1.74931e-014
lhumerus -25.0925 -1.61615 90.4191
lradius 55.037
lwrist 3.95176
lhand -12.8758 -13.2477
lfingers 7.12502
lthumb 13.213 16.3136
rfemur -28.6197 5.46807 24.844
rtibia 74.105
rfoot -31.1165 9.06855
rtoes -11.216
lfemur -28.5261 -7.91279 -14.7701
ltibia 80.4132
lfoot -39.5394 3.12152
ltoes -17.7316
